<?xml version="1.0" standalone="no"?><!DOCTYPE svg PUBLIC "-//W3C//DTD SVG 1.1//EN" "http://www.w3.org/Graphics/SVG/1.1/DTD/svg11.dtd"><svg t="1715407154168" class="icon" viewBox="0 0 1024 1024" version="1.1" xmlns="http://www.w3.org/2000/svg" p-id="6212" xmlns:xlink="http://www.w3.org/1999/xlink" width="200" height="200"><path d="M781.572063 162.539683c17.196698 0 31.126349 13.929651 31.12635 31.126349v252.911746l15.603809 11.702857c18.529524 12.353016 22.658032 39.123302 8.224508 57.669079L812.698413 548.929016 812.698413 846.587937A31.126349 31.126349 0 0 1 781.572063 877.714286h-555.398095a31.126349 31.126349 0 0 1-31.045079-28.688254l-0.08127-2.438095 0.032508-652.921905c0-17.196698 13.929651-31.126349 31.126349-31.126349h555.365587z m-37.40038 50.79365h-480.467302c-9.638603 0-17.554286 7.281778-18.578286 16.644064l-0.113778 2.031746v576.170667c0 9.622349 7.281778 17.554286 16.644064 18.562031l2.031746 0.113778h480.483556c9.622349 0 17.554286-7.281778 18.562031-16.644063l0.113778-2.031746V724.764444l49.818413-63.585523v-112.201143l-136.858413 189.391238c-6.176508 8.240762-12.353016 12.353016-22.658032 14.41727l-65.942349 18.529524-2.064254-67.941588c0-8.257016 2.064254-18.545778 8.240762-24.722285l160.719238-222.435556c14.433524-18.529524 39.172063-22.658032 57.701587-10.288762l0.845207 0.633905v-118.94654l-49.802159 65.015873v-160.621714c0-10.32127-8.370794-18.67581-18.692063-18.67581zM487.927873 629.792508v50.793651H325.079365v-50.793651h162.864762z m145.440508-156.428191v50.793651H319.878095v-50.793651h313.490286z m0-156.444444v50.793651H319.878095v-50.793651h313.490286z" fill="#bfbfbf" p-id="6213"></path></svg>
