<?xml version="1.0" standalone="no"?><!DOCTYPE svg PUBLIC "-//W3C//DTD SVG 1.1//EN" "http://www.w3.org/Graphics/SVG/1.1/DTD/svg11.dtd"><svg t="1750676409936" class="icon" viewBox="0 0 1024 1024" version="1.1" xmlns="http://www.w3.org/2000/svg" p-id="16913" xmlns:xlink="http://www.w3.org/1999/xlink" width="200" height="200"><path d="M221.866667 0a94.071467 94.071467 0 0 0-69.597867 31.010133A94.208 94.208 0 0 0 128.426667 102.4H128v835.549867A86.152533 86.152533 0 0 0 214.050133 1024H896V0H221.866667zM162.133333 937.949867V170.632533a84.872533 84.872533 0 0 0 51.2 17.1008v802.065067a51.933867 51.933867 0 0 1-51.2-51.848533zM861.866667 989.866667h-614.4V187.733333h51.2v430.097067c0 11.639467 7.5264 21.538133 18.756266 24.644267 2.338133 0.631467 4.6592 0.955733 6.9632 0.955733 0.256 0 0.494933-0.085333 0.750934-0.1024 0.768-0.017067 1.501867-0.2048 2.269866-0.290133a24.541867 24.541867 0 0 0 7.458134-2.082134c1.604267-0.733867 3.072-1.655467 4.488533-2.7136 0.6144-0.4608 1.245867-0.853333 1.809067-1.365333 1.8944-1.6896 3.618133-3.601067 4.983466-5.905067l71.970134-119.944533 71.970133 119.9616a25.088 25.088 0 0 0 26.453333 11.7248c0.768-0.136533 1.518933-0.034133 2.286934-0.238933a25.361067 25.361067 0 0 0 18.756266-24.644267V187.733333h324.266667v802.133334zM505.856 161.8432l-0.0512 0.119467-2.338133 4.676266v0.7168l-1.706667 3.925334 1.706667 2.594133V586.922667l-85.333334-142.216534-85.333333 142.216534V174.6944L360.413867 119.466667h166.638933L505.856 161.8432zM548.1472 153.6l34.133333-68.266667H339.319467l-34.133334 68.266667h-79.701333c-32.324267 0-60.0064-23.534933-63.0272-53.589333a59.050667 59.050667 0 0 1 15.138133-46.097067A59.784533 59.784533 0 0 1 221.866667 34.133333h640v17.066667h-85.333334a17.066667 17.066667 0 1 0 0 34.133333h85.333334v17.066667h-68.266667a17.066667 17.066667 0 1 0 0 34.133333h68.266667v17.066667H548.1472z" p-id="16914"></path></svg>