<?xml version="1.0" standalone="no"?><!DOCTYPE svg PUBLIC "-//W3C//DTD SVG 1.1//EN" "http://www.w3.org/Graphics/SVG/1.1/DTD/svg11.dtd"><svg t="1715258767177" class="icon" viewBox="0 0 1024 1024" version="1.1" xmlns="http://www.w3.org/2000/svg" p-id="1841" xmlns:xlink="http://www.w3.org/1999/xlink" width="200" height="200"><path d="M853.141573 1024H170.858427A161.078652 161.078652 0 0 1 9.779775 862.921348V256.920449a161.078652 161.078652 0 0 1 161.078652-161.078651h103.550562v46.022472h-103.550562a115.05618 115.05618 0 0 0-115.05618 115.056179V862.921348a115.05618 115.05618 0 0 0 115.05618 115.05618h682.283146a115.05618 115.05618 0 0 0 115.05618-115.05618V256.920449a115.05618 115.05618 0 0 0-115.05618-115.056179h-101.824719v-46.022472h101.824719a161.078652 161.078652 0 0 1 161.078652 161.078651V862.921348a161.078652 161.078652 0 0 1-161.078652 161.078652z" fill="#bfbfbf" p-id="1842"></path><path d="M562.279551 95.841798h97.107415v46.022472h-97.107415zM362.772135 95.841798h100.328989v46.022472h-100.328989z" fill="#bfbfbf" p-id="1843"></path><path d="M318.245393 260.83236a60.864719 60.864719 0 0 1-60.864719-60.86472V60.864719a60.864719 60.864719 0 1 1 121.729438 0v139.102921a60.864719 60.864719 0 0 1-60.864719 60.86472z m0-214.809888a15.07236 15.07236 0 0 0-14.842247 14.842247v139.102921a14.842247 14.842247 0 1 0 29.684494 0V60.864719A15.07236 15.07236 0 0 0 318.245393 46.022472zM512 260.83236a60.864719 60.864719 0 0 1-60.864719-60.86472V60.864719a60.864719 60.864719 0 1 1 121.729438 0v139.102921a60.864719 60.864719 0 0 1-60.864719 60.86472z m0-214.809888a15.07236 15.07236 0 0 0-14.842247 14.842247v139.102921a14.842247 14.842247 0 1 0 29.684494 0V60.864719A15.07236 15.07236 0 0 0 512 46.022472zM705.754607 260.83236a60.864719 60.864719 0 0 1-60.864719-60.86472V60.864719a60.864719 60.864719 0 1 1 121.729438 0v139.102921a60.864719 60.864719 0 0 1-60.864719 60.86472z m0-214.809888a15.07236 15.07236 0 0 0-14.842247 14.842247v139.102921a14.842247 14.842247 0 1 0 29.684494 0V60.864719A15.07236 15.07236 0 0 0 705.754607 46.022472zM495.086742 908.94382A229.306966 229.306966 0 1 1 642.588764 503.600899a23.011236 23.011236 0 0 1-29.569438 35.322247 183.284494 183.284494 0 1 0 65.812135 140.713708 23.011236 23.011236 0 0 1 46.022472 0A230.11236 230.11236 0 0 1 495.086742 908.94382zM627.401348 402.696629h-264.629213a23.011236 23.011236 0 0 1 0-46.022472h264.629213a23.011236 23.011236 0 0 1 0 46.022472z" fill="#bfbfbf" p-id="1844"></path><path d="M533.97573 759.370787a23.011236 23.011236 0 0 1-16.337977-7.24854L405.918202 632.808989a23.011236 23.011236 0 1 1 33.596405-31.410337l95.036404 101.594606 192.834158-190.072809a23.011236 23.011236 0 1 1 32.330786 32.791012L550.54382 752.697528a23.011236 23.011236 0 0 1-16.56809 6.673259z" fill="#bfbfbf" p-id="1845"></path></svg>
