<?xml version="1.0" standalone="no"?><!DOCTYPE svg PUBLIC "-//W3C//DTD SVG 1.1//EN" "http://www.w3.org/Graphics/SVG/1.1/DTD/svg11.dtd"><svg t="1715411097682" class="icon" viewBox="0 0 1024 1024" version="1.1" xmlns="http://www.w3.org/2000/svg" p-id="19775" xmlns:xlink="http://www.w3.org/1999/xlink" width="200" height="200"><path d="M58.625 911.375V69.875c0-4.625 3.625-8.5 8.125-8.5H743.75c4.5 0 8.125 3.75 8.125 8.5v339.5h58.75V69.875c0-38.5-30-69.875-66.875-69.875H66.875C30 0 0 31.375 0 69.875v841.5C0 949.875 30 981.25 66.75 981.25h379v-61.5H66.75c-4.5 0-8.125-3.75-8.125-8.375zM856.125 750.875h-60.5v-96.625c0-16.5-13.625-29.875-30.375-29.875s-30.375 13.375-30.375 29.875v126.5c0 16.5 13.625 29.875 30.375 29.875h90.875c16.75 0 30.375-13.375 30.375-29.875s-13.625-29.875-30.375-29.875z" fill="#bfbfbf" opacity=".8" p-id="19776"></path><path d="M256 603.125c0 16.5 13.625 29.875 30.375 29.875h121.25c16.75 0 30.375-13.375 30.375-29.875s-13.625-29.875-30.375-29.875h-121.25c-16.75 0-30.375 13.375-30.375 29.875zM635.375 256H286.375c-16.75 0-30.375 13.375-30.375 29.875 0 16.625 13.625 29.875 30.375 29.875h349c16.75 0 30.25-13.375 30.25-29.875 0.125-16.5-13.5-29.875-30.25-29.875zM665.75 441.5c0-16.5-13.5-29.875-30.25-29.875H286.375c-16.75 0-30.375 13.375-30.375 29.875s13.625 29.875 30.375 29.875h349c16.75 0 30.375-13.375 30.375-29.875zM768 512c-141.375 0-256 114.5-256 256 0 141.375 114.625 256 256 256s256-114.625 256-256c0-141.5-114.625-256-256-256z m0 446.875c-105.375-0.125-190.75-85.5-190.875-190.875 0.125-105.375 85.5-190.75 190.875-190.875 105.375 0.125 190.75 85.5 190.875 190.875-0.125 105.375-85.5 190.75-190.875 190.875z" fill="#bfbfbf" opacity=".8" p-id="19777"></path></svg>
